<svg width="631" height="99" viewBox="0 0 631 99" fill="none" xmlns="http://www.w3.org/2000/svg">
<path d="M64.3273 82.1481H61.1293C53.968 82.1481 47.6813 81.4374 42.2693 80.0161C36.912 78.5948 32.73 76.8454 29.7233 74.7681C26.7167 72.6361 24.284 70.1214 22.4253 67.2241C20.5667 64.3268 19.364 61.6481 18.8173 59.1881C18.2707 56.7281 17.9973 54.1588 17.9973 51.4801V49.1021C17.9973 46.3688 18.2433 43.7994 18.7353 41.3941C19.282 38.9888 20.4573 36.3648 22.2613 33.5221C24.0653 30.6248 26.4433 28.1648 29.3953 26.1421C32.402 24.0648 36.6113 22.3428 42.0233 20.9761C47.49 19.5548 53.8587 18.8441 61.1293 18.8441H64.3273C69.4113 18.8441 74.058 19.1721 78.2673 19.8281C82.5313 20.4841 86.0847 21.3314 88.9273 22.3701C91.8247 23.4088 94.3667 24.6661 96.5533 26.1421C98.7947 27.5634 100.544 29.0121 101.801 30.4881C103.059 31.9641 104.07 33.5494 104.835 35.2441C105.655 36.8841 106.175 38.3601 106.393 39.6721C106.667 40.9841 106.803 42.2688 106.803 43.5261V44.5921H82.6133C80.7547 38.3601 74.058 35.2441 62.5233 35.2441C48.9113 35.2441 42.1053 40.0001 42.1053 49.5121V50.4961C42.1053 52.3001 42.406 54.0221 43.0073 55.6621C43.6633 57.3021 44.702 58.9148 46.1233 60.5001C47.5993 62.0854 49.7313 63.3428 52.5193 64.2721C55.362 65.2014 58.724 65.6661 62.6053 65.6661C65.9947 65.6661 68.974 65.3654 71.5433 64.7641C74.1127 64.1081 76.0533 63.3974 77.3653 62.6321C78.6773 61.8668 79.7707 60.9101 80.6453 59.7621C81.52 58.6141 82.0393 57.7941 82.2033 57.3021C82.3673 56.8101 82.5313 56.2634 82.6953 55.6621H106.803V56.9741C106.803 58.8328 106.53 60.7461 105.983 62.7141C105.437 64.6274 104.234 66.8141 102.375 69.2741C100.517 71.6794 98.1113 73.8114 95.1593 75.6701C92.262 77.4741 88.1347 79.0048 82.7773 80.2621C77.4747 81.5194 71.3247 82.1481 64.3273 82.1481ZM135.665 34.8341V45.3301H162.397C167.099 45.3301 169.449 43.5808 169.449 40.0821V40.0001C169.449 36.5561 167.099 34.8341 162.397 34.8341H135.665ZM135.665 60.0901V81.0001H112.377V19.9921H167.809C184.92 19.9921 193.475 25.2128 193.475 35.6541V36.5561C193.475 38.6334 193.065 40.5194 192.245 42.2141C191.425 43.9088 190.332 45.2754 188.965 46.3141C187.653 47.3528 186.341 48.1728 185.029 48.7741C183.772 49.3754 182.487 49.8401 181.175 50.1681C185.057 51.0428 188.118 52.7374 190.359 55.2521C192.601 57.7121 193.721 60.8554 193.721 64.6821V73.7021C193.721 76.8728 194.104 79.1688 194.869 80.5901V81.0001H171.089C170.597 80.4534 170.351 79.3874 170.351 77.8021V70.6681C170.351 67.0601 169.395 64.4088 167.481 62.7141C165.623 60.9648 162.452 60.0901 157.969 60.0901H135.665ZM200.143 19.9921H267.629V34.9161H223.103V42.5421H266.727V57.3841H223.103V65.7481H268.285V81.0001H200.143V19.9921ZM374.165 81.0001V36.6381H347.843V19.9921H423.775V36.6381H397.453V81.0001H374.165ZM470.121 18.8441H473.811C479.223 18.8441 484.143 19.2268 488.571 19.9921C493.054 20.7028 496.798 21.6594 499.805 22.8621C502.866 24.0101 505.518 25.4588 507.759 27.2081C510.055 28.9028 511.859 30.6248 513.171 32.3741C514.483 34.1234 515.522 36.0368 516.287 38.1141C517.107 40.1914 517.626 42.0774 517.845 43.7721C518.118 45.4668 518.255 47.2434 518.255 49.1021V51.5621C518.255 53.4208 518.118 55.1974 517.845 56.8921C517.626 58.5868 517.107 60.5001 516.287 62.6321C515.522 64.7094 514.483 66.6501 513.171 68.4541C511.914 70.2034 510.137 71.9528 507.841 73.7021C505.545 75.4514 502.894 76.9274 499.887 78.1301C496.88 79.3328 493.136 80.2894 488.653 81.0001C484.225 81.7654 479.278 82.1481 473.811 82.1481H470.121C464.654 82.1481 459.68 81.7654 455.197 81.0001C450.769 80.2894 447.024 79.3328 443.963 78.1301C440.956 76.9274 438.305 75.4514 436.009 73.7021C433.713 71.9528 431.909 70.2034 430.597 68.4541C429.34 66.6501 428.301 64.7094 427.481 62.6321C426.716 60.5001 426.196 58.5868 425.923 56.8921C425.704 55.1974 425.595 53.4208 425.595 51.5621V49.1021C425.595 47.2434 425.704 45.4668 425.923 43.7721C426.196 42.0774 426.716 40.1914 427.481 38.1141C428.301 36.0368 429.34 34.1234 430.597 32.3741C431.909 30.6248 433.713 28.9028 436.009 27.2081C438.305 25.4588 440.956 24.0101 443.963 22.8621C447.024 21.6594 450.769 20.7028 455.197 19.9921C459.68 19.2268 464.654 18.8441 470.121 18.8441ZM494.147 50.8241V49.6761C494.147 47.8721 493.819 46.2048 493.163 44.6741C492.507 43.0888 491.386 41.5581 489.801 40.0821C488.27 38.6061 485.974 37.4308 482.913 36.5561C479.852 35.6814 476.189 35.2441 471.925 35.2441C467.552 35.2441 463.834 35.6814 460.773 36.5561C457.712 37.4308 455.416 38.6061 453.885 40.0821C452.354 41.5581 451.261 43.0888 450.605 44.6741C450.004 46.2048 449.703 47.8721 449.703 49.6761V50.6601C449.703 52.4641 450.031 54.1861 450.687 55.8261C451.343 57.4114 452.436 58.9968 453.967 60.5821C455.498 62.1128 457.794 63.3428 460.855 64.2721C463.971 65.2014 467.661 65.6661 471.925 65.6661C476.189 65.6661 479.852 65.2288 482.913 64.3541C486.029 63.4248 488.352 62.1948 489.883 60.6641C491.414 59.1334 492.507 57.5754 493.163 55.9901C493.819 54.3501 494.147 52.6281 494.147 50.8241ZM547.347 34.8341V45.3301H574.079C578.78 45.3301 581.131 43.5808 581.131 40.0821V40.0001C581.131 36.5561 578.78 34.8341 574.079 34.8341H547.347ZM547.347 60.0901V81.0001H524.059V19.9921H579.491C596.602 19.9921 605.157 25.2128 605.157 35.6541V36.5561C605.157 38.6334 604.747 40.5194 603.927 42.2141C603.107 43.9088 602.014 45.2754 600.647 46.3141C599.335 47.3528 598.023 48.1728 596.711 48.7741C595.454 49.3754 594.169 49.8401 592.857 50.1681C596.738 51.0428 599.8 52.7374 602.041 55.2521C604.282 57.7121 605.403 60.8554 605.403 64.6821V73.7021C605.403 76.8728 605.786 79.1688 606.551 80.5901V81.0001H582.771C582.279 80.4534 582.033 79.3874 582.033 77.8021V70.6681C582.033 67.0601 581.076 64.4088 579.163 62.7141C577.304 60.9648 574.134 60.0901 569.651 60.0901H547.347Z" fill="#FFB901"/>
<g clip-path="url(#clip0_315_84)">
<path d="M324.732 82.6213L315.069 77.7892C312.376 76.4561 309.238 76.4561 306.545 77.7892L296.882 82.6213C288.58 86.7592 279.833 77.8447 284.165 69.6522L286.441 65.3755C286.747 64.7923 287.247 64.3202 287.858 64.0425L322.955 48.2129C324.399 47.5742 326.093 48.1574 326.815 49.5459L337.394 69.6522C341.725 77.8447 333.007 86.7592 324.732 82.6213Z" fill="#FFB901"/>
<path d="M320.789 44.847L297.798 55.2057C295.216 56.3721 292.606 53.5949 293.939 51.0955L302.38 35.0716C305.962 28.2677 315.68 28.2677 319.262 35.0716L322.233 40.7369C323.011 42.2643 322.344 44.1528 320.789 44.847Z" fill="#FFB901" fill-opacity="0.17"/>
<path d="M310.711 15C307.26 15 304.454 17.8089 304.454 21.264C304.454 24.6531 307.102 27.3961 310.553 27.5148C310.659 27.5016 310.764 27.5016 310.843 27.5148H310.935C312.555 27.4607 314.09 26.7782 315.216 25.6117C316.342 24.4452 316.97 22.8861 316.969 21.264C316.969 17.8089 314.163 15 310.711 15Z" fill="#FFB901"/>
</g>
<rect width="13" height="13" fill="#A4FCFC"/>
<rect y="86" width="13" height="13" fill="#A4FCFC"/>
<rect x="618" y="86" width="13" height="13" fill="#A4FCFC"/>
<rect x="618" width="13" height="13" fill="#A4FCFC"/>
<line x1="10" y1="5.5" x2="624" y2="5.5" stroke="#A4FCFC"/>
<line x1="6.5" y1="92" x2="6.5" y2="6" stroke="#A4FCFC"/>
<line x1="6.0008" y1="90.5" x2="624.001" y2="91.4888" stroke="#A4FCFC"/>
<line x1="624.5" y1="4" x2="624.5" y2="91" stroke="#A4FCFC"/>
<defs>
<clipPath id="clip0_315_84">
<rect width="55.56" height="68.7624" fill="white" transform="translate(283 15)"/>
</clipPath>
</defs>
</svg>
