<svg width="444" height="444" viewBox="0 0 444 444" fill="none" xmlns="http://www.w3.org/2000/svg">
<g clip-path="url(#clip0_184_8915)">
<rect width="444" height="444" rx="17" fill="#001E1B"/>
<g clip-path="url(#clip1_184_8915)">
<path d="M275.409 349.921L238.267 331.347C227.914 326.223 215.854 326.223 205.501 331.347L168.359 349.921C136.447 365.826 102.827 331.561 119.477 300.07L128.229 283.632C129.403 281.39 131.324 279.575 133.672 278.508L268.578 217.663C274.128 215.207 280.639 217.449 283.413 222.786L324.077 300.07C340.727 331.561 307.214 365.826 275.409 349.921Z" fill="#FFB901"/>
<path d="M260.253 204.725L171.881 244.541C161.955 249.025 151.922 238.35 157.046 228.743L189.491 167.151C203.259 140.998 240.615 140.998 254.383 167.151L265.803 188.927C268.791 194.798 266.23 202.057 260.253 204.725Z" fill="#FFB901" fill-opacity="0.17"/>
<path d="M221.516 90C208.249 90 197.464 100.797 197.464 114.077C197.464 127.104 207.642 137.648 220.908 138.104C221.313 138.053 221.718 138.053 222.022 138.104H222.377C228.602 137.896 234.502 135.273 238.83 130.789C243.157 126.305 245.574 120.312 245.568 114.077C245.568 100.797 234.782 90 221.516 90Z" fill="#FFB901"/>
</g>
</g>
<defs>
<clipPath id="clip0_184_8915">
<rect width="444" height="444" fill="white"/>
</clipPath>
<clipPath id="clip1_184_8915">
<rect width="213.56" height="264.307" fill="white" transform="translate(115 90)"/>
</clipPath>
</defs>
</svg>
