<svg width="258" height="258" viewBox="0 0 258 258" fill="none" xmlns="http://www.w3.org/2000/svg">
<circle cx="129" cy="129" r="128.25" fill="black" stroke="white" stroke-width="1.5"/>
<g clip-path="url(#clip0_70_520)">
<path d="M154.822 189.859L137.266 181.08C132.372 178.658 126.671 178.658 121.778 181.08L104.222 189.859C89.1373 197.377 73.2459 181.181 81.116 166.296L85.2528 158.526C85.8077 157.466 86.7158 156.608 87.8257 156.104L151.593 127.344C154.216 126.183 157.294 127.243 158.605 129.766L177.827 166.296C185.697 181.181 169.856 197.377 154.822 189.859Z" fill="#FFB901"/>
<path d="M147.658 121.228L105.887 140.049C101.195 142.168 96.4526 137.122 98.8741 132.581L114.211 103.468C120.718 91.1057 138.376 91.1057 144.884 103.468L150.282 113.761C151.694 116.536 150.483 119.967 147.658 121.228Z" fill="#FFB901" fill-opacity="0.17"/>
<path d="M129.348 67C123.077 67 117.979 72.1034 117.979 78.3808C117.979 84.5385 122.79 89.5221 129.061 89.7377C129.252 89.7137 129.444 89.7137 129.587 89.7377H129.755C132.697 89.6394 135.486 88.3995 137.532 86.2801C139.577 84.1607 140.72 81.328 140.717 78.3808C140.717 72.1034 135.619 67 129.348 67Z" fill="#FFB901"/>
</g>
<defs>
<clipPath id="clip0_70_520">
<rect width="100.945" height="124.932" fill="white" transform="translate(79 67)"/>
</clipPath>
</defs>
</svg>
