<svg width="41" height="41" viewBox="0 0 41 41" fill="none" xmlns="http://www.w3.org/2000/svg">
<g clip-path="url(#clip0_51_124590)">
<rect x="-0.000244141" y="3.05176e-05" width="41" height="41" rx="20.5" fill="black" fill-opacity="0.89"/>
<path d="M15.3495 20.5003C15.4052 20.4781 15.5167 20.4336 15.5724 20.4114C17.7461 19.5451 20.096 20.4171 20.8957 22.4236C21.6509 24.3186 20.5451 26.5679 18.3714 27.4342C17.4239 27.8118 16.3431 27.8551 15.4521 27.5643C14.1936 27.1616 13.3147 26.0909 12.8038 24.809C11.7593 22.5125 11.6846 19.8941 12.267 17.4659C12.8603 15.2271 13.977 13.1673 15.639 11.6653L16.7186 12.5914C15.547 14.0272 15.0437 15.5196 14.8971 16.9344C14.7061 18.2377 14.9831 19.4191 15.3495 20.5003Z" fill="white"/>
<path d="M25.8161 20.6983C25.7593 20.7177 25.6458 20.7567 25.589 20.7761C23.3756 21.5353 21.0712 20.5495 20.3705 18.5064C19.7087 16.5767 20.923 14.3841 23.1365 13.625C24.1013 13.2941 25.1829 13.3037 26.0586 13.6377C27.296 14.1014 28.1215 15.2137 28.5692 16.5191C29.5002 18.8639 29.4469 21.4828 28.7466 23.8796C28.0447 26.0867 26.8286 28.0895 25.0953 29.5086L24.0622 28.5309C25.3026 27.154 25.8782 25.688 26.0937 24.282C26.3482 22.9896 26.1291 21.7961 25.8161 20.6983Z" fill="white"/>
</g>
<defs>
<clipPath id="clip0_51_124590">
<rect x="-0.000244141" y="3.05176e-05" width="41" height="41" rx="20.5" fill="white"/>
</clipPath>
</defs>
</svg>
