<svg width="41" height="41" viewBox="0 0 41 41" fill="none" xmlns="http://www.w3.org/2000/svg">
<g clip-path="url(#clip0_15_643)">
<rect width="41" height="41" rx="20.5" fill="white" fill-opacity="0.89"/>
<path d="M15.3497 20.5002C15.4055 20.478 15.5169 20.4336 15.5727 20.4114C17.7464 19.545 20.0962 20.417 20.8959 22.4235C21.6512 24.3186 20.5453 26.5678 18.3716 27.4342C17.4241 27.8118 16.3433 27.855 15.4523 27.5642C14.1938 27.1615 13.315 26.0908 12.804 24.8089C11.7596 22.5124 11.6849 19.894 12.2672 17.4658C12.8606 15.2271 13.9773 13.1673 15.6393 11.6652L16.7189 12.5913C15.5472 14.0271 15.044 15.5195 14.8974 16.9343C14.7063 18.2377 14.9834 19.419 15.3497 20.5002Z" fill="black"/>
<path d="M25.8164 20.6982C25.7597 20.7177 25.6462 20.7566 25.5894 20.7761C23.376 21.5352 21.0716 20.5495 20.3708 18.5063C19.709 16.5767 20.9234 14.3841 23.1368 13.625C24.1017 13.2941 25.1833 13.3037 26.059 13.6377C27.2964 14.1014 28.1219 15.2137 28.5696 16.5191C29.5006 18.8639 29.4473 21.4828 28.747 23.8796C28.045 26.0867 26.829 28.0895 25.0956 29.5086L24.0626 28.5308C25.303 27.154 25.8785 25.688 26.0941 24.282C26.3485 22.9896 26.1295 21.7961 25.8164 20.6982Z" fill="black"/>
</g>
<defs>
<clipPath id="clip0_15_643">
<rect width="41" height="41" rx="20.5" fill="white"/>
</clipPath>
</defs>
</svg>
