<svg width="110" height="73" viewBox="0 0 110 73" fill="none" xmlns="http://www.w3.org/2000/svg">
<path d="M34.7551 73C53.9499 73 69.5103 56.6584 69.5103 36.5C69.5103 16.3416 53.9499 0 34.7551 0C15.5604 0 0 16.3416 0 36.5C0 56.6584 15.5604 73 34.7551 73Z" fill="white"/>
<path d="M11.2554 47.4341C9.71849 47.4341 8.36791 47.1773 7.20361 46.6638C6.03931 46.1258 5.10787 45.3921 4.4093 44.4628C3.71072 43.5335 3.29157 42.4575 3.15186 41.2348H7.65768C7.7974 41.944 8.16998 42.5553 8.77541 43.0689C9.40413 43.558 10.2075 43.8025 11.1855 43.8025C12.1635 43.8025 12.8737 43.5947 13.3162 43.1789C13.7819 42.7632 14.0147 42.2863 14.0147 41.7483C14.0147 40.9658 13.6887 40.44 13.0367 40.171C12.3847 39.8775 11.4766 39.5963 10.3123 39.3273C9.56713 39.1561 8.81034 38.9482 8.0419 38.7037C7.27347 38.4591 6.56325 38.1534 5.91124 37.7866C5.28252 37.3953 4.77023 36.9062 4.37437 36.3193C3.97851 35.7079 3.78058 34.9621 3.78058 34.0817C3.78058 32.4676 4.38601 31.1104 5.59688 30.0099C6.83103 28.9094 8.55419 28.3592 10.7664 28.3592C12.8155 28.3592 14.4455 28.8605 15.6564 29.8632C16.8906 30.8658 17.6241 32.2476 17.8569 34.0083H13.6305C13.3744 32.6633 12.408 31.9908 10.7314 31.9908C9.89314 31.9908 9.24113 32.162 8.77541 32.5043C8.33298 32.8467 8.11176 33.2747 8.11176 33.7882C8.11176 34.3262 8.44941 34.7542 9.1247 35.0721C9.79999 35.39 10.6965 35.6835 11.8142 35.9525C13.0251 36.2459 14.1312 36.5761 15.1325 36.9429C16.1571 37.2853 16.9721 37.8111 17.5775 38.5203C18.1829 39.205 18.4856 40.1954 18.4856 41.4915C18.5089 42.6165 18.2295 43.6314 17.6474 44.5362C17.0652 45.441 16.2269 46.1502 15.1325 46.6638C14.038 47.1773 12.7457 47.4341 11.2554 47.4341ZM28.4191 47.4341C26.9288 47.4341 25.7063 47.1896 24.7516 46.7005C23.7968 46.1869 23.0866 45.5144 22.6209 44.6829C22.1552 43.8515 21.9223 42.9344 21.9223 41.9317C21.9223 40.2443 22.551 38.8749 23.8085 37.8233C25.0659 36.7717 26.9521 36.2459 29.467 36.2459H33.868V35.8058C33.868 34.5586 33.5304 33.6415 32.8551 33.0546C32.1798 32.4676 31.3415 32.1742 30.3402 32.1742C29.432 32.1742 28.6403 32.4065 27.965 32.8712C27.2897 33.3113 26.8706 33.9716 26.7076 34.852H22.3415C22.4579 33.5314 22.877 32.3821 23.5989 31.4039C24.3441 30.4257 25.2988 29.6798 26.4631 29.1662C27.6274 28.6282 28.9314 28.3592 30.3751 28.3592C32.8434 28.3592 34.7878 29.0073 36.2082 30.3034C37.6287 31.5995 38.3389 33.4336 38.3389 35.8058V46.9939H34.5317L34.1125 44.0593C33.6002 45.0375 32.8784 45.8445 31.9469 46.4804C31.0388 47.1162 29.8628 47.4341 28.4191 47.4341ZM29.432 43.7659C30.7128 43.7659 31.7024 43.3257 32.401 42.4453C33.1229 41.5649 33.5769 40.4767 33.7632 39.1805H29.956C28.7684 39.1805 27.9184 39.4129 27.4062 39.8775C26.8939 40.3177 26.6377 40.8679 26.6377 41.5282C26.6377 42.2374 26.8939 42.7877 27.4062 43.1789C27.9184 43.5702 28.5937 43.7659 29.432 43.7659ZM42.6054 46.9939V20.5825H47.0764V46.9939H42.6054ZM57.6175 47.4341C56.1272 47.4341 54.9047 47.1896 53.95 46.7005C52.9952 46.1869 52.285 45.5144 51.8193 44.6829C51.3536 43.8515 51.1207 42.9344 51.1207 41.9317C51.1207 40.2443 51.7494 38.8749 53.0069 37.8233C54.2643 36.7717 56.1505 36.2459 58.6654 36.2459H63.0664V35.8058C63.0664 34.5586 62.7288 33.6415 62.0535 33.0546C61.3782 32.4676 60.5399 32.1742 59.5386 32.1742C58.6304 32.1742 57.8387 32.4065 57.1634 32.8712C56.4881 33.3113 56.069 33.9716 55.906 34.852H51.5399C51.6563 33.5314 52.0754 32.3821 52.7973 31.4039C53.5425 30.4257 54.4972 29.6798 55.6615 29.1662C56.8258 28.6282 58.1298 28.3592 59.5735 28.3592C62.0418 28.3592 63.9862 29.0073 65.4066 30.3034C66.8271 31.5995 67.5373 33.4336 67.5373 35.8058V46.9939H63.7301L63.3109 44.0593C62.7986 45.0375 62.0768 45.8445 61.1453 46.4804C60.2372 47.1162 59.0612 47.4341 57.6175 47.4341ZM58.6304 43.7659C59.9112 43.7659 60.9008 43.3257 61.5994 42.4453C62.3213 41.5649 62.7753 40.4767 62.9616 39.1805H59.1544C57.9668 39.1805 57.1168 39.4129 56.6046 39.8775C56.0923 40.3177 55.8361 40.8679 55.8361 41.5282C55.8361 42.2374 56.0923 42.7877 56.6046 43.1789C57.1168 43.5702 57.7921 43.7659 58.6304 43.7659Z" fill="black"/>
<path d="M71.8037 46.9939V20.5825H76.2746V36.1726L82.4221 28.7994H87.7313L80.6407 37.0896L88.8843 46.9939H83.2953L76.2746 37.86V46.9939H71.8037ZM98.5367 47.4341C96.8597 47.4341 95.3461 47.0306 93.9959 46.2236C92.6683 45.4166 91.6091 44.3039 90.8167 42.8855C90.0486 41.4426 89.6645 39.7797 89.6645 37.8967C89.6645 36.0136 90.0599 34.3629 90.8523 32.9445C91.6439 31.5017 92.703 30.3767 94.0307 29.5697C95.3809 28.7627 96.8945 28.3592 98.5714 28.3592C100.225 28.3592 101.715 28.7627 103.042 29.5697C104.393 30.3767 105.452 31.5017 106.221 32.9445C107.013 34.3629 107.408 36.0136 107.408 37.8967C107.408 39.7797 107.013 41.4426 106.221 42.8855C105.452 44.3039 104.393 45.4166 103.042 46.2236C101.692 47.0306 100.189 47.4341 98.5367 47.4341ZM98.5367 43.3624C99.701 43.3624 100.713 42.9099 101.575 42.0051C102.437 41.0758 102.867 39.7063 102.867 37.8967C102.867 36.087 102.437 34.7297 101.575 33.8249C100.713 32.8956 99.7123 32.431 98.5714 32.431C97.3837 32.431 96.3593 32.8956 95.4973 33.8249C94.6589 34.7297 94.2401 36.087 94.2401 37.8967C94.2401 39.7063 94.6589 41.0758 95.4973 42.0051C96.3593 42.9099 97.3724 43.3624 98.5367 43.3624Z" fill="white"/>
<path d="M57.8637 20.8236L55.0001 23.7241" stroke="black" stroke-width="8"/>
<path d="M29.8813 20.8236L27.0177 23.7241" stroke="black" stroke-width="8"/>
<path d="M99.5303 53.6936V49.6401" stroke="white" stroke-width="4"/>
</svg>
